<mxfile host="app.diagrams.net" modified="2022-05-24T08:57:03.419Z" agent="5.0 (Windows NT 10.0; Win64; x64) AppleWebKit/537.36 (KHTML, like Gecko) Chrome/101.0.4951.64 Safari/537.36 Edg/101.0.1210.53" etag="N5DSN0oDE-A7oMFqCkRI" version="18.1.1" type="github">
  <diagram name="Page-1" id="80d4a630-b321-0f5e-ff81-c5a36ef4752d">
    <mxGraphModel dx="1407" dy="791" grid="0" gridSize="10" guides="1" tooltips="1" connect="1" arrows="1" fold="1" page="1" pageScale="1" pageWidth="1100" pageHeight="850" background="none" math="0" shadow="0">
      <root>
        <mxCell id="0" />
        <mxCell id="1" parent="0" />
        <mxCell id="5hO_2IVtTYIV_nDjL4QS-40" style="edgeStyle=orthogonalEdgeStyle;rounded=0;orthogonalLoop=1;jettySize=auto;html=1;exitX=0;exitY=0.5;exitDx=0;exitDy=0;exitPerimeter=0;entryX=0.5;entryY=1;entryDx=0;entryDy=0;entryPerimeter=0;" edge="1" parent="1" source="5hO_2IVtTYIV_nDjL4QS-11" target="5hO_2IVtTYIV_nDjL4QS-38">
          <mxGeometry relative="1" as="geometry">
            <Array as="points">
              <mxPoint x="559" y="381.5" />
            </Array>
          </mxGeometry>
        </mxCell>
        <mxCell id="5hO_2IVtTYIV_nDjL4QS-14" value="" style="group" vertex="1" connectable="0" parent="1">
          <mxGeometry x="159" y="331.5" width="100" height="90" as="geometry" />
        </mxCell>
        <mxCell id="5hO_2IVtTYIV_nDjL4QS-8" value="" style="fontColor=#0066CC;verticalAlign=top;verticalLabelPosition=bottom;labelPosition=center;align=center;html=1;outlineConnect=0;fillColor=#CCCCCC;strokeColor=#6881B3;gradientColor=none;gradientDirection=north;strokeWidth=2;shape=mxgraph.networks.laptop;" vertex="1" parent="5hO_2IVtTYIV_nDjL4QS-14">
          <mxGeometry width="100" height="55" as="geometry" />
        </mxCell>
        <mxCell id="5hO_2IVtTYIV_nDjL4QS-13" value="21 Code Server" style="text;html=1;align=center;verticalAlign=middle;resizable=0;points=[];autosize=1;strokeColor=none;fillColor=none;" vertex="1" parent="5hO_2IVtTYIV_nDjL4QS-14">
          <mxGeometry y="70" width="100" height="20" as="geometry" />
        </mxCell>
        <mxCell id="5hO_2IVtTYIV_nDjL4QS-17" value="" style="group" vertex="1" connectable="0" parent="1">
          <mxGeometry x="159" y="204" width="100" height="87.5" as="geometry" />
        </mxCell>
        <mxCell id="5hO_2IVtTYIV_nDjL4QS-15" value="" style="fontColor=#0066CC;verticalAlign=top;verticalLabelPosition=bottom;labelPosition=center;align=center;html=1;outlineConnect=0;fillColor=#CCCCCC;strokeColor=#6881B3;gradientColor=none;gradientDirection=north;strokeWidth=2;shape=mxgraph.networks.desktop_pc;" vertex="1" parent="5hO_2IVtTYIV_nDjL4QS-17">
          <mxGeometry x="35" width="30" height="60" as="geometry" />
        </mxCell>
        <mxCell id="5hO_2IVtTYIV_nDjL4QS-16" value="22 Build Server" style="text;html=1;align=center;verticalAlign=middle;resizable=0;points=[];autosize=1;strokeColor=none;fillColor=none;" vertex="1" parent="5hO_2IVtTYIV_nDjL4QS-17">
          <mxGeometry y="67.5" width="100" height="20" as="geometry" />
        </mxCell>
        <mxCell id="5hO_2IVtTYIV_nDjL4QS-20" value="" style="group" vertex="1" connectable="0" parent="1">
          <mxGeometry x="169" y="581.5" width="80" height="80" as="geometry" />
        </mxCell>
        <mxCell id="5hO_2IVtTYIV_nDjL4QS-18" value="" style="fontColor=#0066CC;verticalAlign=top;verticalLabelPosition=bottom;labelPosition=center;align=center;html=1;outlineConnect=0;fillColor=#CCCCCC;strokeColor=#6881B3;gradientColor=none;gradientDirection=north;strokeWidth=2;shape=mxgraph.networks.gamepad;" vertex="1" parent="5hO_2IVtTYIV_nDjL4QS-20">
          <mxGeometry width="80" height="50" as="geometry" />
        </mxCell>
        <mxCell id="5hO_2IVtTYIV_nDjL4QS-19" value="XSS&lt;br&gt;" style="text;html=1;align=center;verticalAlign=middle;resizable=0;points=[];autosize=1;strokeColor=none;fillColor=none;" vertex="1" parent="5hO_2IVtTYIV_nDjL4QS-20">
          <mxGeometry x="20" y="60" width="40" height="20" as="geometry" />
        </mxCell>
        <mxCell id="5hO_2IVtTYIV_nDjL4QS-22" value="" style="group" vertex="1" connectable="0" parent="1">
          <mxGeometry x="159" y="451.5" width="100" height="90" as="geometry" />
        </mxCell>
        <mxCell id="5hO_2IVtTYIV_nDjL4QS-9" value="" style="fontColor=#0066CC;verticalAlign=top;verticalLabelPosition=bottom;labelPosition=center;align=center;html=1;outlineConnect=0;fillColor=#CCCCCC;strokeColor=#6881B3;gradientColor=none;gradientDirection=north;strokeWidth=2;shape=mxgraph.networks.laptop;" vertex="1" parent="5hO_2IVtTYIV_nDjL4QS-22">
          <mxGeometry width="100" height="55" as="geometry" />
        </mxCell>
        <mxCell id="5hO_2IVtTYIV_nDjL4QS-21" value="Media Center" style="text;html=1;align=center;verticalAlign=middle;resizable=0;points=[];autosize=1;strokeColor=none;fillColor=none;" vertex="1" parent="5hO_2IVtTYIV_nDjL4QS-22">
          <mxGeometry x="5" y="70" width="90" height="20" as="geometry" />
        </mxCell>
        <mxCell id="5hO_2IVtTYIV_nDjL4QS-23" style="edgeStyle=orthogonalEdgeStyle;rounded=0;orthogonalLoop=1;jettySize=auto;html=1;exitX=1;exitY=0.5;exitDx=0;exitDy=0;exitPerimeter=0;entryX=0;entryY=0.5;entryDx=0;entryDy=0;entryPerimeter=0;" edge="1" parent="1" source="5hO_2IVtTYIV_nDjL4QS-15" target="5hO_2IVtTYIV_nDjL4QS-24">
          <mxGeometry relative="1" as="geometry">
            <mxPoint x="449" y="411.5" as="targetPoint" />
            <Array as="points">
              <mxPoint x="329" y="233.5" />
              <mxPoint x="329" y="406.5" />
            </Array>
          </mxGeometry>
        </mxCell>
        <mxCell id="5hO_2IVtTYIV_nDjL4QS-39" style="edgeStyle=orthogonalEdgeStyle;rounded=0;orthogonalLoop=1;jettySize=auto;html=1;exitX=0.5;exitY=0;exitDx=0;exitDy=0;exitPerimeter=0;" edge="1" parent="1" source="5hO_2IVtTYIV_nDjL4QS-24" target="5hO_2IVtTYIV_nDjL4QS-38">
          <mxGeometry relative="1" as="geometry">
            <Array as="points">
              <mxPoint x="479" y="381.5" />
              <mxPoint x="559" y="381.5" />
            </Array>
          </mxGeometry>
        </mxCell>
        <mxCell id="5hO_2IVtTYIV_nDjL4QS-24" value="" style="fontColor=#0066CC;verticalAlign=top;verticalLabelPosition=bottom;labelPosition=center;align=center;html=1;outlineConnect=0;fillColor=#CCCCCC;strokeColor=#6881B3;gradientColor=none;gradientDirection=north;strokeWidth=2;shape=mxgraph.networks.router;" vertex="1" parent="1">
          <mxGeometry x="429" y="391.5" width="100" height="30" as="geometry" />
        </mxCell>
        <mxCell id="5hO_2IVtTYIV_nDjL4QS-25" style="edgeStyle=orthogonalEdgeStyle;rounded=0;orthogonalLoop=1;jettySize=auto;html=1;exitX=0.85;exitY=0.5;exitDx=0;exitDy=0;exitPerimeter=0;entryX=0;entryY=0.5;entryDx=0;entryDy=0;entryPerimeter=0;" edge="1" parent="1" source="5hO_2IVtTYIV_nDjL4QS-8" target="5hO_2IVtTYIV_nDjL4QS-24">
          <mxGeometry relative="1" as="geometry">
            <Array as="points">
              <mxPoint x="329" y="359.5" />
              <mxPoint x="329" y="406.5" />
            </Array>
          </mxGeometry>
        </mxCell>
        <mxCell id="5hO_2IVtTYIV_nDjL4QS-26" style="edgeStyle=orthogonalEdgeStyle;rounded=0;orthogonalLoop=1;jettySize=auto;html=1;exitX=0.85;exitY=0.5;exitDx=0;exitDy=0;exitPerimeter=0;entryX=0;entryY=0.5;entryDx=0;entryDy=0;entryPerimeter=0;" edge="1" parent="1" source="5hO_2IVtTYIV_nDjL4QS-9" target="5hO_2IVtTYIV_nDjL4QS-24">
          <mxGeometry relative="1" as="geometry">
            <mxPoint x="409.0000000000002" y="401.5" as="targetPoint" />
            <Array as="points">
              <mxPoint x="329" y="479.5" />
              <mxPoint x="329" y="406.5" />
            </Array>
          </mxGeometry>
        </mxCell>
        <mxCell id="5hO_2IVtTYIV_nDjL4QS-27" style="edgeStyle=orthogonalEdgeStyle;rounded=0;orthogonalLoop=1;jettySize=auto;html=1;exitX=0.98;exitY=0.5;exitDx=0;exitDy=0;exitPerimeter=0;entryX=0;entryY=0.5;entryDx=0;entryDy=0;entryPerimeter=0;" edge="1" parent="1" source="5hO_2IVtTYIV_nDjL4QS-18" target="5hO_2IVtTYIV_nDjL4QS-24">
          <mxGeometry relative="1" as="geometry">
            <Array as="points">
              <mxPoint x="329" y="606.5" />
              <mxPoint x="329" y="406.5" />
            </Array>
          </mxGeometry>
        </mxCell>
        <mxCell id="5hO_2IVtTYIV_nDjL4QS-29" value="" style="group" vertex="1" connectable="0" parent="1">
          <mxGeometry x="809" y="244" width="100" height="87.5" as="geometry" />
        </mxCell>
        <mxCell id="5hO_2IVtTYIV_nDjL4QS-30" value="" style="fontColor=#0066CC;verticalAlign=top;verticalLabelPosition=bottom;labelPosition=center;align=center;html=1;outlineConnect=0;fillColor=#CCCCCC;strokeColor=#6881B3;gradientColor=none;gradientDirection=north;strokeWidth=2;shape=mxgraph.networks.desktop_pc;" vertex="1" parent="5hO_2IVtTYIV_nDjL4QS-29">
          <mxGeometry x="35" width="30" height="60" as="geometry" />
        </mxCell>
        <mxCell id="5hO_2IVtTYIV_nDjL4QS-31" value="Work PC" style="text;html=1;align=center;verticalAlign=middle;resizable=0;points=[];autosize=1;strokeColor=none;fillColor=none;" vertex="1" parent="5hO_2IVtTYIV_nDjL4QS-29">
          <mxGeometry x="20" y="67.5" width="60" height="20" as="geometry" />
        </mxCell>
        <mxCell id="5hO_2IVtTYIV_nDjL4QS-32" value="" style="group" vertex="1" connectable="0" parent="1">
          <mxGeometry x="809" y="511.5" width="100" height="90" as="geometry" />
        </mxCell>
        <mxCell id="5hO_2IVtTYIV_nDjL4QS-33" value="" style="fontColor=#0066CC;verticalAlign=top;verticalLabelPosition=bottom;labelPosition=center;align=center;html=1;outlineConnect=0;fillColor=#CCCCCC;strokeColor=#6881B3;gradientColor=none;gradientDirection=north;strokeWidth=2;shape=mxgraph.networks.laptop;" vertex="1" parent="5hO_2IVtTYIV_nDjL4QS-32">
          <mxGeometry width="100" height="55" as="geometry" />
        </mxCell>
        <mxCell id="5hO_2IVtTYIV_nDjL4QS-34" value="WAN PC" style="text;html=1;align=center;verticalAlign=middle;resizable=0;points=[];autosize=1;strokeColor=none;fillColor=none;" vertex="1" parent="5hO_2IVtTYIV_nDjL4QS-32">
          <mxGeometry x="20" y="70" width="60" height="20" as="geometry" />
        </mxCell>
        <mxCell id="5hO_2IVtTYIV_nDjL4QS-35" style="edgeStyle=orthogonalEdgeStyle;rounded=0;orthogonalLoop=1;jettySize=auto;html=1;exitX=0;exitY=0.5;exitDx=0;exitDy=0;exitPerimeter=0;entryX=1;entryY=0.5;entryDx=0;entryDy=0;entryPerimeter=0;" edge="1" parent="1" source="5hO_2IVtTYIV_nDjL4QS-30" target="5hO_2IVtTYIV_nDjL4QS-11">
          <mxGeometry relative="1" as="geometry">
            <mxPoint x="729" y="371.5" as="targetPoint" />
            <Array as="points">
              <mxPoint x="769" y="274.5" />
              <mxPoint x="769" y="381.5" />
            </Array>
          </mxGeometry>
        </mxCell>
        <mxCell id="5hO_2IVtTYIV_nDjL4QS-36" style="edgeStyle=orthogonalEdgeStyle;rounded=0;orthogonalLoop=1;jettySize=auto;html=1;entryX=1;entryY=0.5;entryDx=0;entryDy=0;entryPerimeter=0;" edge="1" parent="1" source="5hO_2IVtTYIV_nDjL4QS-33" target="5hO_2IVtTYIV_nDjL4QS-11">
          <mxGeometry relative="1" as="geometry" />
        </mxCell>
        <mxCell id="5hO_2IVtTYIV_nDjL4QS-38" value="&lt;font color=&quot;#000000&quot;&gt;Internet&lt;/font&gt;" style="html=1;outlineConnect=0;fillColor=#CCCCCC;strokeColor=#6881B3;gradientColor=none;gradientDirection=north;strokeWidth=2;shape=mxgraph.networks.cloud;fontColor=#ffffff;" vertex="1" parent="1">
          <mxGeometry x="514" y="241.5" width="90" height="50" as="geometry" />
        </mxCell>
        <mxCell id="5hO_2IVtTYIV_nDjL4QS-42" value="" style="group" vertex="1" connectable="0" parent="1">
          <mxGeometry x="639" y="331.5" width="90" height="130" as="geometry" />
        </mxCell>
        <mxCell id="5hO_2IVtTYIV_nDjL4QS-11" value="" style="fontColor=#0066CC;verticalAlign=top;verticalLabelPosition=bottom;labelPosition=center;align=center;html=1;outlineConnect=0;fillColor=#CCCCCC;strokeColor=#6881B3;gradientColor=none;gradientDirection=north;strokeWidth=2;shape=mxgraph.networks.server;" vertex="1" parent="5hO_2IVtTYIV_nDjL4QS-42">
          <mxGeometry width="90" height="100" as="geometry" />
        </mxCell>
        <mxCell id="5hO_2IVtTYIV_nDjL4QS-41" value="Ali Server" style="text;html=1;align=center;verticalAlign=middle;resizable=0;points=[];autosize=1;strokeColor=none;fillColor=none;fontColor=#000000;" vertex="1" parent="5hO_2IVtTYIV_nDjL4QS-42">
          <mxGeometry x="10" y="110" width="70" height="20" as="geometry" />
        </mxCell>
        <mxCell id="5hO_2IVtTYIV_nDjL4QS-44" style="edgeStyle=orthogonalEdgeStyle;rounded=0;orthogonalLoop=1;jettySize=auto;html=1;exitX=0;exitY=1;exitDx=0;exitDy=0;exitPerimeter=0;entryX=0.5;entryY=1;entryDx=0;entryDy=0;entryPerimeter=0;fontColor=#000000;" edge="1" parent="1" source="5hO_2IVtTYIV_nDjL4QS-11" target="5hO_2IVtTYIV_nDjL4QS-24">
          <mxGeometry relative="1" as="geometry" />
        </mxCell>
      </root>
    </mxGraphModel>
  </diagram>
</mxfile>
